HIERARCHY
ROOT Hips
{
  OFFSET 5.84602e-005 68.8428 3.50346
  CHANNELS 6 Xposition Yposition Zposition Zrotation Xrotation Yrotation
  JOINT Spine
  {
    OFFSET 0 8.597 -4.6522
    CHANNELS 3 Zrotation Xrotation Yrotation
    JOINT Spine1
    {
      OFFSET 0 7.8454 0.4098
      CHANNELS 3 Zrotation Xrotation Yrotation
      JOINT Spine2
      {
        OFFSET 0 9.7078 -2.1609
        CHANNELS 3 Zrotation Xrotation Yrotation
        JOINT Neck
        {
          OFFSET 0 21.8761 -0.4549
          CHANNELS 3 Zrotation Xrotation Yrotation
          JOINT Head
          {
            OFFSET 0 12.3537 3.3602
            CHANNELS 3 Zrotation Xrotation Yrotation
            End Site
            {
              OFFSET 0.0001 18.9506 0.5657
            }
          }
        }
        JOINT LeftShoulder
        {
          OFFSET 2.2086 21.1115 7.2329
          CHANNELS 3 Zrotation Xrotation Yrotation
          JOINT LeftArm
          {
            OFFSET 13.1193 3.0282 -4.8998
            CHANNELS 3 Zrotation Xrotation Yrotation
            JOINT LeftForeArm
            {
              OFFSET 27.4081 -0.0973053 -0.2375
              CHANNELS 3 Zrotation Xrotation Yrotation
              JOINT LeftHand
              {
                OFFSET 22.8641 0.0662994 -0.1369
                CHANNELS 3 Zrotation Xrotation Yrotation
                JOINT LeftHandIndex1
                {
                  OFFSET 8.8614 0.775009 2.4612
                  CHANNELS 3 Zrotation Xrotation Yrotation
                  JOINT LeftHandIndex2
                  {
                    OFFSET 3.3146 -0.808304 0.5841
                    CHANNELS 3 Zrotation Xrotation Yrotation
                    JOINT LeftHandIndex3
                    {
                      OFFSET 2.2628 -0.552002 0.3989
                      CHANNELS 3 Zrotation Xrotation Yrotation
                      End Site
                      {
                        OFFSET 1.6102 -0.4807 0.2612
                      }
                    }
                  }
                }
                JOINT LeftHandMiddle1
                {
                  OFFSET 8.9937 0.895004 0.2143
                  CHANNELS 3 Zrotation Xrotation Yrotation
                  JOINT LeftHandMiddle2
                  {
                    OFFSET 4.0984 0.0113983 -0.0242
                    CHANNELS 3 Zrotation Xrotation Yrotation
                    JOINT LeftHandMiddle3
                    {
                      OFFSET 2.2716 0.00689697 -0.0138001
                      CHANNELS 3 Zrotation Xrotation Yrotation
                      End Site
                      {
                        OFFSET 2.0404 -0.1441 0.0027
                      }
                    }
                  }
                }
                JOINT LeftHandRing1
                {
                  OFFSET 8.5234 0.597198 -2.0164
                  CHANNELS 3 Zrotation Xrotation Yrotation
                  JOINT LeftHandRing2
                  {
                    OFFSET 3.7188 -0.188293 -0.2328
                    CHANNELS 3 Zrotation Xrotation Yrotation
                    JOINT LeftHandRing3
                    {
                      OFFSET 2.1191 -0.106598 -0.1332
                      CHANNELS 3 Zrotation Xrotation Yrotation
                      End Site
                      {
                        OFFSET 1.8737 -0.2304 -0.0886
                      }
                    }
                  }
                }
                JOINT LeftHandPinky1
                {
                  OFFSET 7.9094 -0.601089 -3.4825
                  CHANNELS 3 Zrotation Xrotation Yrotation
                  JOINT LeftHandPinky2
                  {
                    OFFSET 2.2874 -0.477005 -0.6314
                    CHANNELS 3 Zrotation Xrotation Yrotation
                    JOINT LeftHandPinky3
                    {
                      OFFSET 1.6774 -0.349396 -0.4633
                      CHANNELS 3 Zrotation Xrotation Yrotation
                      End Site
                      {
                        OFFSET 1.4888 -0.4091 -0.3416
                      }
                    }
                  }
                }
                JOINT LeftHandThumb1
                {
                  OFFSET 1.833 -1.3875 1.3896
                  CHANNELS 3 Zrotation Xrotation Yrotation
                  JOINT LeftHandThumb2
                  {
                    OFFSET 3.4129 -1.121 2.5732
                    CHANNELS 3 Zrotation Xrotation Yrotation
                    JOINT LeftHandThumb3
                    {
                      OFFSET 2.2474 -0.804199 1.6192
                      CHANNELS 3 Zrotation Xrotation Yrotation
                      End Site
                      {
                        OFFSET 1.6527 -0.5689 1.1317
                      }
                    }
                  }
                }
              }
            }
          }
        }
        JOINT RightShoulder
        {
          OFFSET -2.2086 21.1115 7.2329
          CHANNELS 3 Zrotation Xrotation Yrotation
          JOINT RightArm
          {
            OFFSET -13.1216 3.0287 -4.9007
            CHANNELS 3 Zrotation Xrotation Yrotation
            JOINT RightForeArm
            {
              OFFSET -27.4081 -0.0973053 -0.2375
              CHANNELS 3 Zrotation Xrotation Yrotation
              JOINT RightHand
              {
                OFFSET -22.8641 0.0664063 -0.1369
                CHANNELS 3 Zrotation Xrotation Yrotation
                JOINT RightHandIndex1
                {
                  OFFSET -8.8614 0.774994 2.4612
                  CHANNELS 3 Zrotation Xrotation Yrotation
                  JOINT RightHandIndex2
                  {
                    OFFSET -3.3146 -0.808304 0.5841
                    CHANNELS 3 Zrotation Xrotation Yrotation
                    JOINT RightHandIndex3
                    {
                      OFFSET -2.2628 -0.552002 0.3989
                      CHANNELS 3 Zrotation Xrotation Yrotation
                      End Site
                      {
                        OFFSET -1.6102 -0.4807 0.2612
                      }
                    }
                  }
                }
                JOINT RightHandMiddle1
                {
                  OFFSET -8.9937 0.894989 0.2143
                  CHANNELS 3 Zrotation Xrotation Yrotation
                  JOINT RightHandMiddle2
                  {
                    OFFSET -4.0984 0.0113983 -0.0242
                    CHANNELS 3 Zrotation Xrotation Yrotation
                    JOINT RightHandMiddle3
                    {
                      OFFSET -2.2716 0.00691223 -0.0138001
                      CHANNELS 3 Zrotation Xrotation Yrotation
                      End Site
                      {
                        OFFSET -2.0404 -0.1441 0.0027
                      }
                    }
                  }
                }
                JOINT RightHandRing1
                {
                  OFFSET -8.5234 0.597198 -2.0164
                  CHANNELS 3 Zrotation Xrotation Yrotation
                  JOINT RightHandRing2
                  {
                    OFFSET -3.7188 -0.188309 -0.2328
                    CHANNELS 3 Zrotation Xrotation Yrotation
                    JOINT RightHandRing3
                    {
                      OFFSET -2.1191 -0.106598 -0.1332
                      CHANNELS 3 Zrotation Xrotation Yrotation
                      End Site
                      {
                        OFFSET -1.8737 -0.2304 -0.0886
                      }
                    }
                  }
                }
                JOINT RightHandPinky1
                {
                  OFFSET -7.9094 -0.601105 -3.4825
                  CHANNELS 3 Zrotation Xrotation Yrotation
                  JOINT RightHandPinky2
                  {
                    OFFSET -2.2874 -0.477005 -0.6314
                    CHANNELS 3 Zrotation Xrotation Yrotation
                    JOINT RightHandPinky3
                    {
                      OFFSET -1.6774 -0.349396 -0.4633
                      CHANNELS 3 Zrotation Xrotation Yrotation
                      End Site
                      {
                        OFFSET -1.4888 -0.4091 -0.3416
                      }
                    }
                  }
                }
                JOINT RightHandThumb1
                {
                  OFFSET -1.833 -1.38751 1.3896
                  CHANNELS 3 Zrotation Xrotation Yrotation
                  JOINT RightHandThumb2
                  {
                    OFFSET -3.41299 -1.12099 2.5732
                    CHANNELS 3 Zrotation Xrotation Yrotation
                    JOINT RightHandThumb3
                    {
                      OFFSET -2.24741 -0.804108 1.6192
                      CHANNELS 3 Zrotation Xrotation Yrotation
                      End Site
                      {
                        OFFSET -1.6527 -0.5689 1.1317
                      }
                    }
                  }
                }
              }
            }
          }
        }
      }
    }
  }
  JOINT RightUpLeg
  {
    OFFSET -9.1966 3.8861 -0.7581
    CHANNELS 3 Zrotation Xrotation Yrotation
    JOINT RightLeg
    {
      OFFSET -0.7359 -41.0265 0
      CHANNELS 3 Zrotation Xrotation Yrotation
      JOINT RightFoot
      {
        OFFSET 0 -40.2855 0
        CHANNELS 3 Zrotation Xrotation Yrotation
        JOINT RightToeBase
        {
          OFFSET 0 -5.6122 11.7359
          CHANNELS 3 Zrotation Xrotation Yrotation
          End Site
          {
            OFFSET 0 0 7.8731
          }
        }
      }
    }
  }
  JOINT LeftUpLeg
  {
    OFFSET 9.1965 3.8864 -0.7581
    CHANNELS 3 Zrotation Xrotation Yrotation
    JOINT LeftLeg
    {
      OFFSET 0.7359 -41.0268 0
      CHANNELS 3 Zrotation Xrotation Yrotation
      JOINT LeftFoot
      {
        OFFSET 0 -40.2855 0
        CHANNELS 3 Zrotation Xrotation Yrotation
        JOINT LeftToeBase
        {
          OFFSET 0 -5.6122 11.7359
          CHANNELS 3 Zrotation Xrotation Yrotation
          End Site
          {
            OFFSET 0 0 7.8731
          }
        }
      }
    }
  }
}
MOTION
Frames:	4
Frame Time:	0.0333333
5.84602e-005 68.8428 3.50346 0 0 -0 0 0 -0 0 0 -0 0 0 -0 0 0 -0 0 0 -0 0 0 -0 0 0 -0 0 0 -0 0 0 -0 0 0 -0 0 0 -0 0 0 -0 0 0 -0 -0.0146107 -8.87603e-005 -2.63497e-007 2.99804e-018 -2.42657e-020 -1.42182e-022 0 0 -0 -0.0187562 -0.001176 5.858e-005 5.06224e-018 3.88251e-019 1.21329e-020 0 0 -0 -0.012269 -0.00324817 0.000675346 -1.74678e-018 3.88251e-019 -0 0 0 -0 0 0 -0 0 0 -0 0 0 -0 0 0 -0 0 0 -0 0 0 -0 0 0 -0 0 0 -0 0 0 -0 0 0 -0 0.0149955 -9.10982e-005 2.64101e-007 -9.69331e-018 1.21329e-020 -4.7394e-023 0 0 -0 0.0189956 -0.00119102 -5.96516e-005 -5.41541e-019 0 2.42657e-020 0 0 -0 0.0122698 -0.00324857 -0.000673756 -2.00796e-019 0 -1.94126e-019 0 0 -0 0 0 -0 0 0 -0 3.39842 1.33031 -0.0637918 -5.65207e-008 0.834868 -0.000436188 -3.39935 -2.16518 -0.0642563 -8.89002e-024 -1.18485e-023 -1.48106e-024 -3.39844 1.35642 0.0640283 -3.18788e-007 0.782166 -0.000588827 3.39931 -2.13858 0.0634662 1.1399e-023 0 -0 
-0.113666 19.0073 7.19782 -0 -66.6681 -0 -0.0466682 6.34473 -0.0808736 -0.0850506 12.6897 -0.157978 -0.0850506 12.6897 -0.157978 1.65744e-007 13.3321 -7.43335e-007 1.31657e-009 6.711 -1.15855e-008 0.459893 0.322345 6.37558 -57.0667 0.500819 22.4381 21.2135 13.9352 -58.2053 -5.23363 17.4808 0.154855 -3.18055e-015 1.98785e-015 3.18055e-015 -3.67683e-006 -1.18081e-007 7.04486e-007 -3.91299e-007 7.23557e-007 2.18677e-007 -3.18055e-015 1.98785e-015 3.18055e-015 -0.0146096 -8.95899e-005 2.67399e-006 -3.91307e-007 7.23529e-007 2.18769e-007 -3.18055e-015 1.98785e-015 3.18055e-015 -0.0187716 -0.00117412 6.43829e-005 -8.55514e-007 1.94256e-007 -3.02051e-007 -3.18055e-015 1.98785e-015 3.18055e-015 -0.012288 -0.00325524 0.000682925 -3.91295e-007 7.23534e-007 2.18766e-007 -3.18055e-015 1.98785e-015 3.18055e-015 -3.67683e-006 -1.18081e-007 7.04486e-007 -3.91299e-007 7.23557e-007 2.18677e-007 -0.462479 0.322546 -6.37817 57.0537 0.502736 -22.4401 -21.2158 13.9317 58.1988 5.2312 17.4807 -0.156969 7.70411e-007 1.45227e-006 -4.40146e-007 1.15562e-006 2.17841e-006 -6.60219e-007 3.85206e-007 7.26137e-007 -2.20073e-007 7.70411e-007 1.45227e-006 -4.40146e-007 0.0149734 -9.06719e-005 -4.85488e-006 3.85215e-007 7.26108e-007 -2.20168e-007 7.70411e-007 1.45227e-006 -4.40146e-007 0.0190049 -0.00119075 -6.32054e-005 3.85214e-007 7.261e-007 -2.20198e-007 7.70411e-007 1.45227e-006 -4.40146e-007 0.0122724 -0.00324589 -0.000665042 3.85203e-007 7.26114e-007 -2.20162e-007 7.70411e-007 1.45227e-006 -4.40146e-007 1.15562e-006 2.17841e-006 -6.60219e-007 3.85206e-007 7.26137e-007 -2.20073e-007 -4.44438 -39.1726 -8.95995 170.56 81.1051 -174.223 -6.86759 9.47489 -1.72215 -4.96962e-016 0 -3.18055e-015 11.2467 2.32534 0.813009 -1.47605 5.49622 0.667959 7.65174 9.27293 0.480662 -7.65857e-007 9.25519e-008 3.53907e-007 
-0.220163 -3.12163 5.86449 -180 -83.3313 -180 -0.0671157 9.17617 -0.115845 -0.117459 18.3525 -0.22506 -0.117459 18.3525 -0.22506 5.29213e-006 19.3321 -3.73777e-006 6.41771e-008 9.50626 -4.53299e-008 0.643514 0.464222 9.24476 -82.8694 0.662356 32.5363 36.079 5.64106 -82.3086 -7.62278 25.3471 0.236981 2.04143e-031 1.47101e-014 -7.95139e-016 7.95139e-016 1.46107e-014 -1.59028e-015 -7.95139e-016 1.47101e-014 -1.19271e-015 2.04143e-031 1.47101e-014 -7.95139e-016 -0.0146101 -9.03304e-005 -1.70632e-006 1.11319e-014 -2.6339e-015 5.56597e-015 2.04143e-031 1.47101e-014 -7.95139e-016 -0.0187694 -0.00117957 5.78739e-005 1.59028e-015 5.96354e-016 -1.59028e-015 2.04143e-031 1.47101e-014 -7.95139e-016 -0.0122418 -0.00323885 0.000676203 6.06912e-032 4.37326e-015 -7.95139e-016 2.04143e-031 1.47101e-014 -7.95139e-016 7.95139e-016 1.46107e-014 -1.59028e-015 -7.95139e-016 1.47101e-014 -1.19271e-015 -0.64724 0.464514 -9.2485 82.851 0.664885 -32.5393 -36.0821 5.63669 82.312 7.61971 25.3469 -0.240226 7.95139e-016 -1.83876e-015 -7.95139e-016 7.95139e-016 -5.01931e-015 -2.38542e-015 -1.59028e-015 -5.2181e-015 -3.18055e-015 7.95139e-016 -1.83876e-015 -7.95139e-016 0.0149792 -9.2162e-005 4.12175e-006 -4.55184e-032 -1.63997e-015 -1.59028e-015 7.95139e-016 -1.83876e-015 -7.95139e-016 0.0189843 -0.00119007 -5.91341e-005 -7.95139e-016 -4.52235e-015 -2.38542e-015 7.95139e-016 -1.83876e-015 -7.95139e-016 0.0122958 -0.0032563 -0.000682084 6.26499e-007 1.0956e-006 -6.06438e-007 7.95139e-016 -1.83876e-015 -7.95139e-016 7.95139e-016 -5.01931e-015 -2.38542e-015 -1.59028e-015 -5.2181e-015 -3.18055e-015 -11.8866 -55.7085 -19.8622 177.053 38.4426 175.946 -7.29095 14.5389 -4.40005 -1.78906e-015 0 7.95139e-016 17.8304 3.18225 1.13801 -2.14397 7.1294 0.901777 9.51867 14.4646 0.644028 7.49956e-007 9.66828e-007 -2.52282e-006 
-0.191443 1.86497 6.31527 -180 -89.9981 -180 -0.0617667 8.49446 -0.10659 -0.10918 16.989 -0.20728 -0.10918 16.989 -0.20728 7.96657e-007 17.9989 -6.85291e-007 1.3393e-007 8.38567 -1.55777e-007 0.603948 0.43297 8.60715 -77.1298 0.631612 30.2922 32.824 8.41876 -77.1444 -7.08972 23.5991 0.217604 3.97569e-016 5.01931e-015 -1.59028e-015 -2.32808e-006 2.06834e-007 6.06866e-007 1.39149e-015 4.96962e-016 -1.59028e-015 3.97569e-016 5.01931e-015 -1.59028e-015 -0.0146144 -8.82307e-005 -8.45826e-006 3.37934e-015 7.05686e-015 1.43125e-014 3.97569e-016 5.01931e-015 -1.59028e-015 -0.0187384 -0.00117533 6.00302e-005 2.02764e-031 -2.43511e-015 4.77083e-015 3.97569e-016 5.01931e-015 -1.59028e-015 -0.0122697 -0.00324765 0.000674887 1.59028e-015 3.52843e-015 -0 3.97569e-016 5.01931e-015 -1.59028e-015 -2.32808e-006 2.06834e-007 6.06866e-007 1.39149e-015 4.96962e-016 -1.59028e-015 -0.60742 0.433252 -8.61064 77.1126 0.634032 -30.2949 -32.8292 8.40309 77.17 7.08676 23.5989 -0.220575 2.32212e-006 2.27808e-007 -6.22146e-007 2.32212e-006 2.27808e-007 -6.22146e-007 2.32212e-006 2.27808e-007 -6.22146e-007 2.32212e-006 2.27808e-007 -6.22146e-007 0.0150009 -8.92883e-005 -5.90934e-008 2.1579e-006 6.11319e-008 -1.54896e-006 2.32212e-006 2.27808e-007 -6.22146e-007 0.0189956 -0.00119052 -6.408e-005 2.32211e-006 2.27706e-007 -6.22208e-007 2.32212e-006 2.27808e-007 -6.22146e-007 0.0122807 -0.0032499 -0.000671552 2.3221e-006 2.27756e-007 -6.22236e-007 2.32212e-006 2.27808e-007 -6.22146e-007 2.32212e-006 2.27808e-007 -6.22146e-007 2.32212e-006 2.27808e-007 -6.22146e-007 -10.5253 -52.1385 -16.9356 176.687 47.8812 177.498 -7.43342 13.5371 -3.41095 -4.38607e-007 -1.13319e-010 4.12351e-007 16.3607 3.04837 1.0667 -1.99524 6.62693 0.846388 9.11481 13.3942 0.600989 -2.09011e-006 4.52976e-007 1.38298e-006 
